# Blender v2.90.1 OBJ File: ''
# www.blender.org
v -1.000000 -1.000000 -0.100000
v -1.000000 -1.000000 0.100000
v -1.000000 1.000000 -0.100000
v -1.000000 1.000000 0.100000
v 1.000000 -1.000000 -0.100000
v 1.000000 -1.000000 0.100000
v 1.000000 1.000000 -0.100000
v 1.000000 1.000000 0.100000
vt 0.625000 0.000000
vt 0.375000 0.250000
vt 0.375000 0.000000
vt 0.285156 0.013672
vt 0.035156 0.263672
vt 0.035156 0.013672
vt 0.298828 0.017578
vt 0.048828 0.267578
vt 0.048828 0.017578
vt 0.982422 0.730469
vt 0.732422 0.980469
vt 0.855469 0.833984
vt 0.294922 0.023438
vt 0.044922 0.273438
vt 0.044922 0.023438
vt 0.000100 0.999900
vt 0.999900 0.000100
vt 0.999900 0.999900
vt 0.490234 0.166016
vt 0.285156 0.263672
vt 0.298828 0.267578
vt 0.982422 0.980469
vt 0.294922 0.273438
vt 0.000100 0.000100
vn -1.0000 0.0000 0.0000
vn 0.0000 1.0000 0.0000
vn 1.0000 0.0000 0.0000
vn 0.0000 -1.0000 0.0000
vn 0.0000 0.0000 -1.0000
vn 0.0000 0.0000 1.0000
s off
f 2/1/1 3/2/1 1/3/1
f 4/4/2 7/5/2 3/6/2
f 8/7/3 5/8/3 7/9/3
f 6/10/4 1/11/4 5/12/4
f 7/13/5 1/14/5 3/15/5
f 4/16/6 6/17/6 8/18/6
f 2/1/1 4/19/1 3/2/1
f 4/4/2 8/20/2 7/5/2
f 8/7/3 6/21/3 5/8/3
f 6/10/4 2/22/4 1/11/4
f 7/13/5 5/23/5 1/14/5
f 4/16/6 2/24/6 6/17/6
